<svg width="512" height="512" viewBox="0 0 512 512" fill="none" xmlns="http://www.w3.org/2000/svg">
<g clip-path="url(#clip0_10_2)">
<path d="M464 0H48C21.4903 0 0 21.4903 0 48V464C0 490.51 21.4903 512 48 512H464C490.51 512 512 490.51 512 464V48C512 21.4903 490.51 0 464 0Z" fill="white"/>
<path d="M152.451 105.021C166.757 75.9873 195.331 67.5761 207.83 67H304.17C316.669 67.5761 345.243 75.9873 359.55 105.021C373.856 134.056 373.971 162.438 372.241 173C367.819 168.583 354.935 157.33 338.782 147.652C337.628 143.043 330.706 109.631 304.17 109.631H207.83C181.294 109.631 174.372 143.043 173.219 147.652C157.065 157.33 144.182 168.583 139.759 173C138.029 162.438 138.144 134.056 152.451 105.021Z" fill="black"/>
<path fill-rule="evenodd" clip-rule="evenodd" d="M348.769 414.933C385.964 386.821 410 342.217 410 292C410 206.948 341.051 138 256 138C170.949 138 102 206.948 102 292C102 351.331 135.553 402.826 184.718 428.545L215.97 238.975H305.077C320.731 238.975 333.541 241.097 343.509 245.342C353.545 249.586 360.636 255.581 364.783 263.33C368.997 271.076 370.236 280.206 368.496 290.715C367.158 298.261 364.281 305.167 359.866 311.432C355.518 317.63 349.999 322.885 343.308 327.196C336.686 331.441 329.294 334.372 321.132 335.989L320.731 338.01C329.561 338.279 337.254 340.503 343.81 344.679C350.367 348.789 355.183 354.516 358.261 361.858C361.337 369.135 362.074 377.623 360.469 387.325C358.777 397.543 354.878 406.746 348.769 414.933ZM260.438 445.937H251.562C253.036 445.978 254.515 446 256 446C257.485 446 258.964 445.978 260.438 445.937ZM271.36 401.068H245.271L252.093 357.413H278.987C284.74 357.413 289.523 358.289 293.337 360.039C297.149 361.791 299.859 364.351 301.465 367.72C303.07 371.089 303.472 375.198 302.668 380.048C301.665 386.921 298.487 392.142 293.136 395.712C287.85 399.283 280.592 401.068 271.36 401.068ZM280.994 322.65H258.115L264.537 283.036H288.218C295.043 283.036 300.461 284.72 304.475 288.089C308.556 291.456 310.094 296.375 309.09 302.843C308.421 307.019 306.783 310.589 304.174 313.554C301.565 316.518 298.254 318.776 294.239 320.325C290.225 321.875 285.81 322.65 280.994 322.65Z" fill="black"/>
</g>
<defs>
<clipPath id="clip0_10_2">
<rect width="512" height="512" fill="white"/>
</clipPath>
</defs>
</svg>
