<svg width="32" height="32" viewBox="0 0 32 32" fill="none" xmlns="http://www.w3.org/2000/svg">
<rect width="32" height="32" rx="4" fill="#0B0B0A"/>
<path d="M10.6459 8.16503C11.3889 6.65492 12.8731 6.21746 13.5223 6.1875H18.526C19.1752 6.21746 20.6594 6.65492 21.4025 8.16503C22.1455 9.67514 22.1515 11.1513 22.0616 11.7006C21.8319 11.4709 21.1627 10.8856 20.3238 10.3823C20.2639 10.1426 19.9043 8.40473 18.526 8.40473H13.5223C12.144 8.40473 11.7845 10.1426 11.7245 10.3823C10.8856 10.8856 10.2164 11.4709 9.9867 11.7006C9.89681 11.1513 9.9028 9.67514 10.6459 8.16503Z" fill="#D0FF01"/>
<path fill-rule="evenodd" clip-rule="evenodd" d="M20.6544 24.3804C22.6801 22.929 24 20.5552 24 17.873C24 13.4548 20.4183 9.87305 16 9.87305C11.5817 9.87305 8 13.4548 8 17.873C8 20.5254 9.29076 22.8763 11.2784 24.3318L13.0026 14H18.2328C19.1517 14 19.9036 14.123 20.4887 14.3691C21.0777 14.6152 21.4939 14.9629 21.7373 15.4121C21.9847 15.8613 22.0574 16.3906 21.9553 17C21.8767 17.4375 21.7079 17.8379 21.4487 18.2012C21.1935 18.5605 20.8696 18.8652 20.4769 19.1152C20.0882 19.3613 19.6543 19.5312 19.1752 19.625L19.1517 19.7422C19.67 19.7578 20.1215 19.8867 20.5063 20.1289C20.8911 20.3672 21.1739 20.6992 21.3545 21.125C21.5351 21.5469 21.5783 22.0391 21.4841 22.6016C21.3741 23.2578 21.1052 23.8418 20.6771 24.3535C20.6696 24.3625 20.662 24.3715 20.6544 24.3804ZM16.2538 23.3984H14.7224L15.1229 20.8672H16.7014C17.0391 20.8672 17.3199 20.918 17.5437 21.0195C17.7675 21.1211 17.9266 21.2695 18.0208 21.4648C18.115 21.6602 18.1386 21.8984 18.0915 22.1797C18.0326 22.5781 17.8461 22.8809 17.5319 23.0879C17.2217 23.2949 16.7957 23.3984 16.2538 23.3984ZM16.8192 18.8516H15.4763L15.8533 16.5547H17.2433C17.6438 16.5547 17.9619 16.6523 18.1975 16.8477C18.437 17.043 18.5273 17.3281 18.4684 17.7031C18.4292 17.9453 18.333 18.1523 18.1798 18.3242C18.0267 18.4961 17.8323 18.627 17.5967 18.7168C17.3611 18.8066 17.102 18.8516 16.8192 18.8516Z" fill="#D0FF01"/>
</svg>
