<svg xmlns="http://www.w3.org/2000/svg" xmlns:xlink="http://www.w3.org/1999/xlink">
<defs>
<symbol viewBox="0 0 512 512" id="ion-fitness"><path fill="currentColor" d="M193.69 152.84a16 16 0 0 1 29.64 2.56l36.4 121.36l30-59.92a16 16 0 0 1 28.62 0L345.89 272h96.76A213.08 213.08 0 0 0 464 176.65C463.37 114.54 413.54 64 352.92 64c-48.09 0-80 29.54-96.92 51c-16.88-21.49-48.83-51-96.92-51C98.46 64 48.63 114.54 48 176.65A211.13 211.13 0 0 0 56.93 240h93.18Z"></path><path fill="currentColor" d="M321.69 295.16L304 259.78l-33.69 67.38A16 16 0 0 1 256 336q-.67 0-1.38-.06a16 16 0 0 1-14-11.34l-36.4-121.36l-30 59.92A16 16 0 0 1 160 272H69.35q14 29.29 37.27 57.66c18.77 22.88 52.8 59.46 131.39 112.81a31.84 31.84 0 0 0 36 0c78.59-53.35 112.62-89.93 131.39-112.81a316.79 316.79 0 0 0 19-25.66H336a16 16 0 0 1-14.31-8.84M464 272h-21.35a260.11 260.11 0 0 1-18.25 32H464a16 16 0 0 0 0-32M48 240a16 16 0 0 0 0 32h21.35a225.22 225.22 0 0 1-12.42-32Z"></path></symbol>
<symbol viewBox="0 0 512 512" id="ion-fitness-outline"><path fill="none" stroke="currentColor" stroke-linecap="round" stroke-linejoin="round" stroke-width="32" d="M352.92 80C288 80 256 144 256 144s-32-64-96.92-64c-52.76 0-94.54 44.14-95.08 96.81c-1.1 109.33 86.73 187.08 183 252.42a16 16 0 0 0 18 0c96.26-65.34 184.09-143.09 183-252.42c-.54-52.67-42.32-96.81-95.08-96.81"></path><path fill="none" stroke="currentColor" stroke-linecap="round" stroke-linejoin="round" stroke-width="32" d="M48 256h112l48-96l48 160l48-96l32 64h128"></path></symbol>
<symbol viewBox="0 0 24 24" id="material-symbols-add-rounded"><path fill="currentColor" d="M11 13H6q-.425 0-.712-.288T5 12q0-.425.288-.712T6 11h5V6q0-.425.288-.712T12 5q.425 0 .713.288T13 6v5h5q.425 0 .713.288T19 12q0 .425-.288.713T18 13h-5v5q0 .425-.288.713T12 19q-.425 0-.712-.288T11 18z"></path></symbol>
<symbol viewBox="0 0 24 24" id="material-symbols-alarm-outline-rounded"><path fill="currentColor" d="M13 12.6V9q0-.425-.288-.712T12 8q-.425 0-.712.288T11 9v3.975q0 .2.075.388t.225.337l2.8 2.8q.275.275.7.275t.7-.275q.275-.275.275-.7t-.275-.7zM12 22q-1.875 0-3.512-.712t-2.85-1.925q-1.213-1.213-1.925-2.85T3 13q0-1.875.713-3.512t1.924-2.85q1.213-1.213 2.85-1.925T12 4q1.875 0 3.513.713t2.85 1.925q1.212 1.212 1.925 2.85T21 13q0 1.875-.712 3.513t-1.925 2.85q-1.213 1.212-2.85 1.925T12 22M2.05 7.3q-.275-.275-.275-.7t.275-.7L4.9 3.05q.275-.275.7-.275t.7.275q.275.275.275.7t-.275.7L3.45 7.3q-.275.275-.7.275t-.7-.275m19.9 0q-.275.275-.7.275t-.7-.275L17.7 4.45q-.275-.275-.275-.7t.275-.7q.275-.275.7-.275t.7.275l2.85 2.85q.275.275.275.7t-.275.7M12 20q2.925 0 4.963-2.037T19 13q0-2.925-2.037-4.962T12 6Q9.075 6 7.038 8.038T5 13q0 2.925 2.038 4.963T12 20"></path></symbol>
<symbol viewBox="0 0 24 24" id="material-symbols-alarm-rounded"><path fill="currentColor" d="M13 12.6V9q0-.425-.288-.712T12 8q-.425 0-.712.288T11 9v3.975q0 .2.075.388t.225.337l2.8 2.8q.275.275.7.275t.7-.275q.275-.275.275-.7t-.275-.7zM12 22q-1.875 0-3.512-.712t-2.85-1.925q-1.213-1.213-1.925-2.85T3 13q0-1.875.713-3.512t1.924-2.85q1.213-1.213 2.85-1.925T12 4q1.875 0 3.513.713t2.85 1.925q1.212 1.212 1.925 2.85T21 13q0 1.875-.712 3.513t-1.925 2.85q-1.213 1.212-2.85 1.925T12 22M2.05 7.3q-.275-.275-.275-.7t.275-.7L4.9 3.05q.275-.275.7-.275t.7.275q.275.275.275.7t-.275.7L3.45 7.3q-.275.275-.7.275t-.7-.275m19.9 0q-.275.275-.7.275t-.7-.275L17.7 4.45q-.275-.275-.275-.7t.275-.7q.275-.275.7-.275t.7.275l2.85 2.85q.275.275.275.7t-.275.7"></path></symbol>
<symbol viewBox="0 0 24 24" id="material-symbols-home-outline-rounded"><path fill="currentColor" d="M6 19h3v-5q0-.425.288-.712T10 13h4q.425 0 .713.288T15 14v5h3v-9l-6-4.5L6 10zm-2 0v-9q0-.475.213-.9t.587-.7l6-4.5q.525-.4 1.2-.4t1.2.4l6 4.5q.375.275.588.7T20 10v9q0 .825-.588 1.413T18 21h-4q-.425 0-.712-.288T13 20v-5h-2v5q0 .425-.288.713T10 21H6q-.825 0-1.412-.587T4 19m8-6.75"></path></symbol>
<symbol viewBox="0 0 24 24" id="material-symbols-home-rounded"><path fill="currentColor" d="M4 19v-9q0-.475.213-.9t.587-.7l6-4.5q.525-.4 1.2-.4t1.2.4l6 4.5q.375.275.588.7T20 10v9q0 .825-.588 1.413T18 21h-3q-.425 0-.712-.288T14 20v-5q0-.425-.288-.712T13 14h-2q-.425 0-.712.288T10 15v5q0 .425-.288.713T9 21H6q-.825 0-1.412-.587T4 19"></path></symbol>
<symbol viewBox="0 0 24 24" id="material-symbols-monitor-weight"><path fill="currentColor" d="M12 12q1.25 0 2.125-.875T15 9q0-1.25-.875-2.125T12 6q-1.25 0-2.125.875T9 9q0 1.25.875 2.125T12 12m-1.5-2.5q-.2 0-.35-.15T10 9q0-.2.15-.35t.35-.15q.2 0 .35.15T11 9q0 .2-.15.35t-.35.15m1.5 0q-.2 0-.35-.15T11.5 9q0-.2.15-.35T12 8.5q.2 0 .35.15t.15.35q0 .2-.15.35T12 9.5m1.5 0q-.2 0-.35-.15T13 9q0-.2.15-.35t.35-.15q.2 0 .35.15T14 9q0 .2-.15.35t-.35.15M5 21q-.825 0-1.412-.587T3 19V5q0-.825.588-1.412T5 3h14q.825 0 1.413.588T21 5v14q0 .825-.587 1.413T19 21z"></path></symbol>
<symbol viewBox="0 0 24 24" id="material-symbols-monitor-weight-outline"><path fill="currentColor" d="M12 12q1.25 0 2.125-.875T15 9q0-1.25-.875-2.125T12 6q-1.25 0-2.125.875T9 9q0 1.25.875 2.125T12 12m-1.5-2.5q-.2 0-.35-.15T10 9q0-.2.15-.35t.35-.15q.2 0 .35.15T11 9q0 .2-.15.35t-.35.15m1.5 0q-.2 0-.35-.15T11.5 9q0-.2.15-.35T12 8.5q.2 0 .35.15t.15.35q0 .2-.15.35T12 9.5m1.5 0q-.2 0-.35-.15T13 9q0-.2.15-.35t.35-.15q.2 0 .35.15T14 9q0 .2-.15.35t-.35.15M5 21q-.825 0-1.412-.587T3 19V5q0-.825.588-1.412T5 3h14q.825 0 1.413.588T21 5v14q0 .825-.587 1.413T19 21zm0-2h14V5H5zM5 5v14z"></path></symbol>
<symbol viewBox="0 0 24 24" id="material-symbols-motion-photos-paused-outline-rounded"><path fill="currentColor" d="M10 15q.425 0 .713-.288T11 14v-4q0-.425-.288-.712T10 9q-.425 0-.712.288T9 10v4q0 .425.288.713T10 15m4 0q.425 0 .713-.288T15 14v-4q0-.425-.288-.712T14 9q-.425 0-.712.288T13 10v4q0 .425.288.713T14 15m-2 7q-2.075 0-3.9-.788t-3.175-2.137q-1.35-1.35-2.137-3.175T2 12q0-.8.125-1.6T2.5 8.825q.125-.4.513-.537t.737.062q.375.2.538.588t.037.812q-.15.55-.238 1.113T4 12q0 3.35 2.325 5.675T12 20q3.35 0 5.675-2.325T20 12q0-3.35-2.325-5.675T12 4q-.6 0-1.187.087T9.65 4.35q-.425.125-.8-.025T8.3 3.8q-.175-.375-.013-.762t.563-.513q.75-.275 1.55-.4T12 2q2.075 0 3.9.788t3.175 2.137q1.35 1.35 2.138 3.175T22 12q0 2.075-.788 3.9t-2.137 3.175q-1.35 1.35-3.175 2.138T12 22M5.5 7q-.625 0-1.062-.437T4 5.5q0-.625.438-1.062T5.5 4q.625 0 1.063.438T7 5.5q0 .625-.437 1.063T5.5 7m6.5 5"></path></symbol>
<symbol viewBox="0 0 24 24" id="material-symbols-pause-rounded"><path fill="currentColor" d="M16 19q-.825 0-1.412-.587T14 17V7q0-.825.588-1.412T16 5q.825 0 1.413.588T18 7v10q0 .825-.587 1.413T16 19m-8 0q-.825 0-1.412-.587T6 17V7q0-.825.588-1.412T8 5q.825 0 1.413.588T10 7v10q0 .825-.587 1.413T8 19"></path></symbol>
<symbol viewBox="0 0 24 24" id="material-symbols-play-arrow-rounded"><path fill="currentColor" d="M8 17.175V6.825q0-.425.3-.713t.7-.287q.125 0 .263.037t.262.113l8.15 5.175q.225.15.338.375t.112.475q0 .25-.112.475t-.338.375l-8.15 5.175q-.125.075-.262.113T9 18.175q-.4 0-.7-.288t-.3-.712"></path></symbol>
<symbol viewBox="0 0 24 24" id="material-symbols-remove-rounded"><path fill="currentColor" d="M6 13q-.425 0-.712-.288T5 12q0-.425.288-.712T6 11h12q.425 0 .713.288T19 12q0 .425-.288.713T18 13z"></path></symbol>
<symbol viewBox="0 0 24 24" id="material-symbols-replay-rounded"><path fill="currentColor" d="M12 22q-1.875 0-3.512-.712t-2.85-1.925q-1.213-1.213-1.925-2.85T3 13q0-.425.288-.712T4 12q.425 0 .713.288T5 13q0 2.925 2.038 4.963T12 20q2.925 0 4.963-2.037T19 13q0-2.925-2.037-4.962T12 6h-.15l.85.85q.3.3.288.7t-.288.7q-.3.3-.712.313t-.713-.288L8.7 5.7q-.3-.3-.3-.7t.3-.7l2.575-2.575q.3-.3.713-.288t.712.313q.275.3.288.7t-.288.7l-.85.85H12q1.875 0 3.513.713t2.85 1.925q1.212 1.212 1.925 2.85T21 13q0 1.875-.712 3.513t-1.925 2.85q-1.213 1.212-2.85 1.925T12 22"></path></symbol>
<symbol viewBox="0 0 24 24" id="material-symbols-rotate-right-rounded"><path fill="currentColor" d="M19.75 12.05q-.3 0-.587-.213T18.8 11.3q-.125-.475-.312-.937t-.438-.888q-.175-.275-.125-.612T18.2 8.3q.375-.35.863-.3t.737.475q.325.55.575 1.125t.4 1.2q.125.5-.187.875t-.838.375m-6.7 8.7q0-.3.213-.587t.537-.363q.475-.125.938-.312t.887-.438q.275-.175.613-.125t.562.275q.35.375.3.863t-.475.737q-.575.325-1.15.563t-1.175.412q-.5.125-.875-.175t-.375-.85m5.15-2.95q-.225-.2-.275-.55t.125-.625q.25-.425.438-.888t.312-.937q.075-.325.35-.537t.6-.213q.55 0 .85.375t.175.875q-.175.6-.412 1.175t-.563 1.15q-.25.425-.737.475t-.863-.3m-8.375 3.95q-2.975-.8-4.875-3.2t-1.9-5.5q0-3.75 2.625-6.375T12.05 4.05h.15l-.875-.875q-.275-.275-.275-.7t.3-.725q.275-.275.7-.275t.725.275l2.575 2.6q.15.15.213.325t.062.375q0 .2-.062.375t-.213.325l-2.6 2.6q-.275.275-.7.275t-.7-.275q-.275-.275-.275-.7t.275-.7l.9-.9h-.2q-2.925 0-4.962 2.037T5.05 13.05q0 2.425 1.475 4.288T10.3 19.8q.325.075.538.35t.212.6q0 .525-.363.825t-.862.175"></path></symbol>
<symbol viewBox="0 0 24 24" id="material-symbols-skip-next-rounded"><path fill="currentColor" d="M16.5 17V7q0-.425.288-.712T17.5 6q.425 0 .713.288T18.5 7v10q0 .425-.288.713T17.5 18q-.425 0-.712-.288T16.5 17m-11-.875v-8.25q0-.45.3-.725t.7-.275q.125 0 .275.025t.275.125l6.2 4.15q.225.15.338.363T13.7 12q0 .25-.112.463t-.338.362l-6.2 4.15q-.125.1-.275.125t-.275.025q-.4 0-.7-.275t-.3-.725"></path></symbol>
<symbol viewBox="0 0 24 24" id="material-symbols-skip-previous-rounded"><path fill="currentColor" d="M5.5 17V7q0-.425.288-.712T6.5 6q.425 0 .713.288T7.5 7v10q0 .425-.288.713T6.5 18q-.425 0-.712-.288T5.5 17m11.45-.025l-6.2-4.15q-.225-.15-.337-.362T10.3 12q0-.25.113-.462t.337-.363l6.2-4.15q.125-.1.275-.125t.275-.025q.4 0 .7.275t.3.725v8.25q0 .45-.3.725t-.7.275q-.125 0-.275-.025t-.275-.125"></path></symbol>
<symbol viewBox="0 0 24 24" id="material-symbols-stop-rounded"><path fill="currentColor" d="M6 16V8q0-.825.588-1.412T8 6h8q.825 0 1.413.588T18 8v8q0 .825-.587 1.413T16 18H8q-.825 0-1.412-.587T6 16"></path></symbol>
<symbol viewBox="0 0 24 24" id="material-symbols-timer-outline-rounded"><path fill="currentColor" d="M10 3q-.425 0-.712-.288T9 2q0-.425.288-.712T10 1h4q.425 0 .713.288T15 2q0 .425-.288.713T14 3zm2 11q.425 0 .713-.288T13 13V9q0-.425-.288-.712T12 8q-.425 0-.712.288T11 9v4q0 .425.288.713T12 14m0 8q-1.85 0-3.488-.712T5.65 19.35q-1.225-1.225-1.937-2.863T3 13q0-1.85.713-3.488T5.65 6.65q1.225-1.225 2.863-1.937T12 4q1.55 0 2.975.5t2.675 1.45l.7-.7q.275-.275.7-.275t.7.275q.275.275.275.7t-.275.7l-.7.7Q20 8.6 20.5 10.025T21 13q0 1.85-.713 3.488T18.35 19.35q-1.225 1.225-2.863 1.938T12 22m0-2q2.9 0 4.95-2.05T19 13q0-2.9-2.05-4.95T12 6Q9.1 6 7.05 8.05T5 13q0 2.9 2.05 4.95T12 20m0-7"></path></symbol>
<symbol viewBox="0 0 24 24" id="material-symbols-trending-down-rounded"><path fill="currentColor" d="m18.6 16l-5.2-5.15l-2.575 2.575Q10.25 14 9.4 14t-1.425-.575L2.7 8.1q-.275-.275-.288-.687T2.7 6.7q.275-.275.7-.275t.7.275L9.4 12l2.575-2.575q.575-.575 1.425-.575t1.425.575L20 14.6V13q0-.425.288-.712T21 12q.425 0 .713.288T22 13v4q0 .425-.288.713T21 18h-4q-.425 0-.712-.288T16 17q0-.425.288-.712T17 16z"></path></symbol>
<symbol viewBox="0 0 24 24" id="material-symbols-trending-flat-rounded"><path fill="currentColor" d="M18.175 13H4q-.425 0-.712-.288T3 12q0-.425.288-.712T4 11h14.175L16.8 9.6q-.3-.3-.288-.7t.313-.7q.3-.275.713-.287t.687.287l3.075 3.1q.3.3.3.7t-.3.7l-3.1 3.1q-.275.275-.687.275T16.8 15.8q-.3-.3-.3-.712t.3-.713z"></path></symbol>
<symbol viewBox="0 0 24 24" id="material-symbols-trending-up-rounded"><path fill="currentColor" d="M2.7 17.625q-.3-.3-.288-.712t.288-.688l5.275-5.35Q8.55 10.3 9.4 10.3t1.425.575l2.575 2.6l5.2-5.15H17q-.425 0-.712-.288T16 7.326q0-.425.288-.712T17 6.325h4q.425 0 .713.288t.287.712v4q0 .425-.288.713t-.712.287q-.425 0-.712-.287T20 11.325v-1.6L14.825 14.9q-.575.575-1.425.575t-1.425-.575L9.4 12.325l-5.3 5.3q-.275.275-.7.275t-.7-.275"></path></symbol>

</defs>
</svg>